<?xml version="1.0" standalone="no"?>
<!DOCTYPE svg PUBLIC "-//W3C//DTD SVG 20010904//EN"
 "http://www.w3.org/TR/2001/REC-SVG-20010904/DTD/svg10.dtd">
<svg version="1.0" xmlns="http://www.w3.org/2000/svg"
 width="1563.000000pt" height="1563.000000pt" viewBox="0 0 1563.000000 1563.000000"
 preserveAspectRatio="xMidYMid meet">

<g transform="translate(0.000000,1563.000000) scale(0.100000,-0.100000)"
fill="#000000" stroke="none">
<path d="M4570 10897 l-25 -13 -3 -1397 -2 -1397 882 0 c929 0 965 -2 1103
-46 145 -47 274 -143 329 -244 52 -95 69 -245 41 -353 -52 -200 -192 -317
-460 -384 -60 -15 -138 -18 -530 -23 l-460 -5 0 -430 0 -430 455 0 c321 0 484
4 555 13 611 81 1023 326 1223 728 22 44 45 96 52 117 16 49 24 47 16 -5 -31
-221 -25 -653 14 -915 76 -520 263 -912 583 -1219 310 -299 715 -486 1257
-584 308 -55 563 -70 1192 -70 495 0 509 1 528 20 20 20 20 31 18 1478 l-3
1457 -907 3 -908 2 0 -455 0 -455 455 0 455 0 0 -595 0 -595 -152 0 c-1065 1
-1637 529 -1638 1512 0 466 114 804 359 1061 210 221 463 340 866 409 125 21
156 22 800 22 l670 1 3 411 c2 393 1 413 -17 435 l-19 24 -384 3 c-436 4 -802
-10 -1028 -38 -1089 -138 -1760 -609 -2034 -1428 l-44 -133 0 138 c0 248 -54
438 -177 623 -113 170 -274 293 -509 389 l-29 12 73 34 c224 108 415 311 504
538 109 277 96 704 -32 992 -187 426 -605 693 -1227 786 -122 18 -1811 24
-1845 6z m1805 -865 c243 -65 401 -202 450 -388 33 -124 15 -283 -42 -381 -63
-108 -220 -209 -393 -254 -80 -21 -110 -23 -517 -26 l-433 -4 0 541 0 542 428
-5 c397 -4 433 -6 507 -25z"/>
<path d="M9463 9859 c-61 -30 -88 -89 -87 -194 0 -158 50 -211 199 -208 44 1
94 6 110 11 l30 8 3 112 3 112 -86 0 -85 0 0 -40 c0 -39 1 -40 35 -40 33 0 35
-2 35 -35 l0 -35 -49 0 c-77 0 -97 31 -89 140 6 89 20 100 130 100 l88 0 0 45
0 45 -97 0 c-79 0 -106 -4 -140 -21z"/>
<path d="M9810 9670 l0 -210 50 0 50 0 0 210 0 210 -50 0 -50 0 0 -210z"/>
<path d="M10010 9830 l0 -50 75 0 c41 0 75 -2 75 -5 0 -3 -38 -53 -85 -111
-81 -101 -85 -109 -85 -155 l0 -49 155 0 155 0 0 50 0 50 -95 0 -96 0 91 114
c84 106 90 117 90 160 l0 46 -140 0 -140 0 0 -50z"/>
<path d="M10482 9828 c-79 -212 -132 -356 -132 -362 0 -3 25 -6 55 -6 54 0 54
0 61 35 l6 35 78 0 78 0 12 -35 c11 -34 13 -35 66 -35 l54 0 -19 48 c-10 26
-44 120 -76 210 l-58 162 -53 0 -53 0 -19 -52z m118 -210 c0 -4 -22 -8 -49 -8
l-50 0 15 52 c34 111 33 111 60 34 13 -39 24 -74 24 -78z"/>
<path d="M10794 9863 c3 -10 26 -97 51 -193 25 -96 48 -183 51 -192 4 -15 17
-18 65 -18 32 0 59 2 59 4 0 2 11 58 25 126 14 68 25 126 26 129 1 3 13 -52
28 -124 l27 -130 60 -3 61 -3 51 199 c29 110 52 205 52 211 0 8 -17 11 -52 9
l-53 -3 -27 -135 c-14 -74 -27 -137 -28 -140 -1 -5 -14 52 -49 223 l-12 57
-54 0 -54 0 -10 -52 c-6 -29 -20 -96 -30 -148 -11 -52 -20 -91 -20 -87 -2 17
-43 214 -52 250 l-10 37 -55 0 c-48 0 -55 -2 -50 -17z"/>
<path d="M4590 5580 l0 -210 110 0 c165 0 212 28 212 127 0 40 -5 52 -30 74
-27 24 -28 27 -11 38 15 8 19 23 19 62 0 98 -34 119 -195 119 l-105 0 0 -210z
m206 105 c4 -8 3 -26 0 -40 -6 -22 -11 -25 -56 -25 l-50 0 0 40 0 40 50 0 c36
0 52 -4 56 -15z m14 -165 c8 -14 8 -26 0 -40 -9 -16 -21 -20 -65 -20 l-55 0 0
40 0 40 55 0 c44 0 56 -4 65 -20z"/>
<path d="M4997 5783 c-4 -3 -7 -98 -7 -210 l0 -203 55 0 55 0 0 210 0 210 -48
0 c-27 0 -52 -3 -55 -7z"/>
<path d="M5251 5778 c-43 -23 -64 -62 -65 -122 -1 -72 18 -92 110 -115 66 -16
69 -19 69 -47 0 -27 -3 -29 -43 -32 -24 -2 -64 1 -88 6 l-44 10 0 -48 c0 -55
1 -55 91 -65 124 -12 187 28 197 123 6 67 -16 108 -66 121 -132 34 -123 30
-120 59 3 27 4 27 81 26 l78 0 -3 45 -3 46 -85 3 c-54 1 -94 -3 -109 -10z"/>
<path d="M5560 5581 l0 -211 50 0 50 0 0 65 c0 87 20 87 78 0 l42 -65 61 0 60
0 -49 72 -50 71 31 21 c39 26 61 85 52 140 -14 90 -47 108 -207 114 l-118 4 0
-211z m204 103 c19 -7 22 -64 4 -82 -7 -7 -34 -12 -60 -12 l-48 0 0 50 0 50
44 0 c24 0 51 -3 60 -6z"/>
<path d="M6092 5773 c-5 -10 -28 -67 -50 -128 -22 -60 -54 -147 -71 -192 l-30
-83 53 0 c53 0 55 1 66 35 l12 36 76 -3 76 -3 10 -32 c9 -32 11 -33 62 -33 30
0 54 3 53 8 0 4 -33 97 -73 207 l-72 200 -52 3 c-41 2 -53 -1 -60 -15z m77
-162 c12 -38 21 -74 21 -80 0 -6 -19 -11 -46 -11 -39 0 -46 3 -41 18 2 9 13
45 22 80 10 34 19 62 21 62 1 0 11 -31 23 -69z"/>
<path d="M6400 5740 l0 -50 55 0 55 0 0 -160 0 -160 50 0 50 0 0 160 0 159 58
3 57 3 3 48 3 47 -165 0 -166 0 0 -50z"/>
</g>
</svg>
